HIERARCHY
ROOT Hips
{
	OFFSET 0.00000 0.00000 0.00000
	CHANNELS 6 Xposition Yposition Zposition Zrotation Yrotation Xrotation 
	JOINT LHipJoint
	{
		OFFSET 0 0 0
		CHANNELS 3 Zrotation Yrotation Xrotation
		JOINT LeftUpLeg
		{
			OFFSET 1.37590 -1.78394 0.89329
			CHANNELS 3 Zrotation Yrotation Xrotation
			JOINT LeftLeg
			{
				OFFSET 2.47928 -6.81178 0.00000
				CHANNELS 3 Zrotation Yrotation Xrotation
				JOINT LeftFoot
				{
					OFFSET 2.63345 -7.23535 0.00000
					CHANNELS 3 Zrotation Yrotation Xrotation
					JOINT LeftToeBase
					{
						OFFSET 0.23938 -0.65768 2.27012
						CHANNELS 3 Zrotation Yrotation Xrotation
						End Site
						{
							OFFSET 0.00000 -0.00000 1.18363
						}
					}
				}
			}
		}
	}
	JOINT RHipJoint
	{
		OFFSET 0 0 0
		CHANNELS 3 Zrotation Yrotation Xrotation
		JOINT RightUpLeg
		{
			OFFSET -1.33617 -1.78394 0.89329
			CHANNELS 3 Zrotation Yrotation Xrotation
			JOINT RightLeg
			{
				OFFSET -2.56922 -7.05888 0.00000
				CHANNELS 3 Zrotation Yrotation Xrotation
				JOINT RightFoot
				{
					OFFSET -2.56568 -7.04915 0.00000
					CHANNELS 3 Zrotation Yrotation Xrotation
					JOINT RightToeBase
					{
						OFFSET -0.27533 -0.75646 2.18105
						CHANNELS 3 Zrotation Yrotation Xrotation
						End Site
						{
							OFFSET -0.00000 -0.00000 1.15233
						}
					}
				}
			}
		}
	}
	JOINT LowerBack
	{
		OFFSET 0 0 0
		CHANNELS 3 Zrotation Yrotation Xrotation
		JOINT Spine
		{
			OFFSET 0.06190 2.15152 -0.00935
			CHANNELS 3 Zrotation Yrotation Xrotation
			JOINT Spine1
			{
				OFFSET 0.06334 2.15332 0.00872
				CHANNELS 3 Zrotation Yrotation Xrotation
				JOINT Neck
				{
					OFFSET 0 0 0
					CHANNELS 3 Zrotation Yrotation Xrotation
					JOINT Neck1
					{
						OFFSET -0.04202 1.66908 0.23524
						CHANNELS 3 Zrotation Yrotation Xrotation
						JOINT Head
						{
							OFFSET 0.07510 1.69357 -0.24440
							CHANNELS 3 Zrotation Yrotation Xrotation
							End Site
							{
								OFFSET 0.02556 1.71719 -0.11000
							}
						}
					}
				}
				JOINT LeftShoulder
				{
					OFFSET 0 0 0
					CHANNELS 3 Zrotation Yrotation Xrotation
					JOINT LeftArm
					{
						OFFSET 3.67168 1.26306 -0.41342
						CHANNELS 3 Zrotation Yrotation Xrotation
						JOINT LeftForeArm
						{
							OFFSET 4.68510 -0.00000 -0.00000
							CHANNELS 3 Zrotation Yrotation Xrotation
							JOINT LeftHand
							{
								OFFSET 3.39626 -0.00000 -0.00000
								CHANNELS 3 Zrotation Yrotation Xrotation
								JOINT LeftFingerBase
								{
									OFFSET 0 0 0
									CHANNELS 3 Zrotation Yrotation Xrotation
									JOINT LeftHandIndex1
									{
										OFFSET 0.48608 -0.00000 -0.00000
										CHANNELS 3 Zrotation Yrotation Xrotation
										End Site
										{
											OFFSET 0.39189 -0.00000 -0.00000
										}
									}
								}
								JOINT LThumb
								{
									OFFSET 0 0 0
									CHANNELS 3 Zrotation Yrotation Xrotation
									End Site
									{
										OFFSET 0.39787 -0.00000 0.39787
									}
								}
							}
						}
					}
				}
				JOINT RightShoulder
				{
					OFFSET 0 0 0
					CHANNELS 3 Zrotation Yrotation Xrotation
					JOINT RightArm
					{
						OFFSET -3.04136 1.42992 -0.76390
						CHANNELS 3 Zrotation Yrotation Xrotation
						JOINT RightForeArm
						{
							OFFSET -5.55576 -0.00000 -0.00000
							CHANNELS 3 Zrotation Yrotation Xrotation
							JOINT RightHand
							{
								OFFSET -3.32774 -0.00000 -0.00000
								CHANNELS 3 Zrotation Yrotation Xrotation
								JOINT RightFingerBase
								{
									OFFSET 0 0 0
									CHANNELS 3 Zrotation Yrotation Xrotation
									JOINT RightHandIndex1
									{
										OFFSET -0.50763 -0.00000 -0.00000
										CHANNELS 3 Zrotation Yrotation Xrotation
										End Site
										{
											OFFSET -0.40926 -0.00000 -0.00000
										}
									}
								}
								JOINT RThumb
								{
									OFFSET 0 0 0
									CHANNELS 3 Zrotation Yrotation Xrotation
									End Site
									{
										OFFSET -0.41551 -0.00000 0.41551
									}
								}
							}
						}
					}
				}
			}
		}
	}
}
MOTION
Frames: 8
Frame Time: .0083333
45.0651 17.87 5.1489 0 0 0 0 0 0 -21 0 0 0 0 0 0 0 0 0 0 0 0 0 0 21 0 0 0 0 0 0 0 0 0 0 0 0 0 0 0 0 0 0 0 0 0 0 -16 0 0 21 0 0 11 0 0 0 -8 0 0 0 0 0 0 0 0 0 0 0 0 0 0 0 0 0 0 0 0 8 0 0 0 0 0 0 0 0 0 0 0 0 0 0 0 0 0
45.0651 17.8700 5.1489 -79.5918 -87.0895 87.3896 0.0000 0.0000 0.0000 -16.0159 -8.2587 -4.4382 0.3525 3.8145 10.5555 0.2118 -1.8833 -8.2410 0.4458 -4.2840 -11.8771 0.0000 0.0000 0.0000 23.8541 4.6673 -7.6889 -0.6750 -5.2536 14.6333 -0.0867 -9.2366 -14.5927 -0.8074 -5.7344 16.0156 -0.9439 0.7928 -3.7925 3.4540 0.9977 -4.6416 4.1143 0.5307 -2.7370 -5.3307 -0.9884 -17.6387 2.2266 -0.4877 18.9731 1.5721 -0.4119 8.8734 -0.0000 0.0000 0.0000 -89.8894 3.1606 7.3018 13.6817 -22.2778 -2.7063 -0.0000 -0.0000 30.0486 10.6899 20.2123 3.7315 -7.1250 0.0000 -0.0000 -17.4923 49.6955 -2.0818 -0.0000 0.0000 0.0000 81.4435 -0.4696 9.4487 -13.6768 22.2708 -2.7044 0.0000 0.0000 13.0309 -15.0887 -24.6354 6.4123 7.1250 -0.0000 -0.0000 15.2835 -54.7290 -3.7174
45.0572 17.8678 5.1421 -79.0999 -87.1032 86.9194 0.0000 0.0000 0.0000 -16.0265 -8.3257 -4.4772 0.3595 3.8519 10.6604 0.2185 -1.8660 -8.3759 0.4048 -4.0846 -11.3149 0.0000 0.0000 0.0000 23.8654 4.6979 -7.7116 -0.6801 -5.2731 14.6890 -0.0960 -9.1609 -14.6405 -0.8550 -5.8971 16.4861 -0.9186 0.7902 -3.7959 3.4391 0.9940 -4.6174 4.0843 0.5276 -2.7087 -5.3905 -1.0160 -17.6638 2.2820 -0.5199 18.9767 1.5969 -0.4251 8.8808 0.0000 0.0000 0.0000 -89.9612 3.2159 7.0664 13.5654 -22.1100 -2.6623 -0.0000 -0.0000 30.3098 10.6371 19.9724 3.6706 -7.1250 0.0000 -0.0000 -17.4403 49.4570 -1.9705 0.0000 0.0000 0.0000 81.5876 -0.5730 9.3526 -13.6078 22.1712 -2.6783 0.0000 0.0000 13.1961 -15.0655 -25.0055 6.4913 7.1250 -0.0000 -0.0000 15.4982 -55.0852 -3.9073
45.0469 17.8655 5.1345 -78.7254 -87.1525 86.5803 0.0000 0.0000 0.0000 -16.0629 -8.3187 -4.4724 0.3592 3.8504 10.6563 0.2235 -1.9058 -8.4703 0.3632 -3.8715 -10.7155 0.0000 0.0000 0.0000 23.8501 4.7619 -7.7171 -0.6843 -5.2889 14.7343 -0.0916 -9.3024 -14.7521 -0.8591 -5.9106 16.5252 -0.9433 0.7831 -3.8472 3.4183 0.9847 -4.5908 4.0771 0.5227 -2.6516 -5.3815 -1.0079 -17.7003 2.2956 -0.5126 19.0143 1.6013 -0.4199 8.8999 0.0000 0.0000 0.0000 -90.0278 3.2760 6.8810 13.4743 -21.9782 -2.6281 -0.0000 -0.0000 30.5323 10.5685 20.1833 3.6832 -7.1250 0.0000 -0.0000 -17.5939 49.6492 -2.0740 0.0000 0.0000 0.0000 81.7018 -0.6500 9.3111 -13.4651 21.9649 -2.6247 0.0000 0.0000 13.3647 -15.0496 -23.8945 6.2156 7.1250 -0.0000 -0.0000 14.9535 -53.9978 -3.3652
45.0392 17.8640 5.1263 -77.9356 -87.1235 85.8060 0.0000 0.0000 0.0000 -15.9882 -8.3442 -4.4590 0.3588 3.8481 10.6497 0.2256 -1.9454 -8.5060 0.3258 -3.6687 -10.1464 0.0000 0.0000 0.0000 23.9235 4.8139 -7.7009 -0.6847 -5.2903 14.7385 -0.0876 -9.3225 -14.7169 -0.8436 -5.8585 16.3745 -0.8895 0.7747 -3.8262 3.4148 0.9728 -4.5742 4.0425 0.5151 -2.6439 -5.3203 -0.9849 -17.6688 2.2381 -0.4852 18.9448 1.5745 -0.4077 8.8689 -0.0000 -0.0000 0.0000 -90.0900 3.3237 6.6891 13.3531 -21.8024 -2.5830 -0.0000 -0.0000 30.7667 10.5222 20.0905 3.6507 -7.1250 0.0000 -0.0000 -17.5977 49.5533 -2.0320 -0.0000 -0.0000 0.0000 81.8209 -0.7206 9.1127 -13.2855 21.7042 -2.5579 0.0000 0.0000 13.7528 -15.2095 -23.6875 6.2334 7.1250 -0.0000 -0.0000 14.6942 -53.8248 -3.2422
45.0304 17.8627 5.1174 -76.5402 -87.1476 84.4235 0.0000 0.0000 0.0000 -16.0164 -8.4295 -4.4751 0.3654 3.8832 10.7484 0.2304 -1.8949 -8.6045 0.3047 -3.5491 -9.8114 0.0000 0.0000 0.0000 23.9299 4.8273 -7.6881 -0.6861 -5.2956 14.7535 -0.0831 -9.4821 -14.8533 -0.8445 -5.8615 16.3832 -0.9452 0.7702 -3.8177 3.4166 0.9687 -4.5545 4.0758 0.5148 -2.6291 -6.2282 -0.9537 -18.2689 3.7779 -0.5150 19.7264 2.2617 -0.3270 9.2512 -0.0000 0.0000 0.0000 -90.1773 3.3835 6.6152 13.2440 -21.6437 -2.5426 -0.0000 -0.0000 30.9483 10.4533 20.3297 3.6675 -7.1250 0.0000 -0.0000 -17.7645 49.7722 -2.1504 -0.0000 0.0000 0.0000 81.9082 -0.8583 9.1593 -13.2047 21.5864 -2.5281 0.0000 0.0000 13.6658 -14.9483 -24.7924 6.3879 7.1250 -0.0000 -0.0000 15.5054 -54.8551 -3.8214
45.0209 17.8614 5.1075 -76.3702 -87.1354 84.2720 0.0000 0.0000 0.0000 -15.9584 -8.4016 -4.4704 0.3656 3.8842 10.7512 0.2362 -1.9366 -8.7100 0.2798 -3.4019 -9.3997 0.0000 0.0000 0.0000 23.9959 4.9354 -7.5957 -0.6795 -5.2705 14.6817 -0.0738 -9.5981 -14.8606 -0.8483 -5.8744 16.4205 -0.9273 0.7536 -3.8368 3.4240 0.9461 -4.5188 4.0732 0.5024 -2.5793 -6.2652 -0.9569 -18.2391 3.7953 -0.5118 19.6355 2.2730 -0.3248 9.2142 -0.0000 -0.0000 0.0000 -90.2476 3.4234 6.2637 13.1239 -21.4684 -2.4984 -0.0000 -0.0000 31.2907 10.1237 20.0773 3.5076 -7.1250 0.0000 -0.0000 -17.9646 49.4809 -2.0440 -0.0000 -0.0000 0.0000 82.0079 -1.0096 9.1407 -13.1260 21.4716 -2.4992 0.0000 0.0000 13.9097 -14.8052 -24.6185 6.2832 7.1250 -0.0000 -0.0000 15.5597 -54.6583 -3.7600
45.0118 17.8606 5.0983 -76.9565 -87.1208 84.8703 0.0000 0.0000 0.0000 -15.8925 -8.4806 -4.3706 0.3643 3.8773 10.7316 0.2448 -1.9340 -8.8721 0.2178 -3.0044 -8.2910 0.0000 0.0000 0.0000 24.0759 5.0197 -7.5438 -0.6793 -5.2700 14.6802 -0.0707 -9.6657 -14.9027 -0.8421 -5.8534 16.3596 -0.9700 0.8198 -3.8606 3.4377 1.0358 -4.4549 4.1133 0.5481 -2.5080 -6.2702 -1.0449 -18.2797 3.8137 -0.6310 19.5645 2.2640 -0.3767 9.2038 -0.0000 -0.0000 0.0000 -90.3245 3.3450 6.1715 12.9720 -21.2461 -2.4431 -0.0000 -0.0000 31.6148 10.1387 19.9086 3.4846 -7.1250 0.0000 -0.0000 -17.8788 49.3218 -1.9619 -0.0000 -0.0000 0.0000 81.9071 -1.5582 9.5049 -13.1989 21.5779 -2.5260 0.0000 0.0000 13.4241 -14.6717 -23.9434 6.0652 7.1250 -0.0000 -0.0000 15.3540 -53.9754 -3.4501
